<svg height='100px' width='100px'  fill="#FFFFFF" xmlns="http://www.w3.org/2000/svg" xmlns:xlink="http://www.w3.org/1999/xlink" version="1.1" x="0px" y="0px" viewBox="0 0 100 94.445" enable-background="new 0 0 100 94.445" xml:space="preserve"><polygon points="83.333,29.629 83.333,4.169 65.277,4.169 65.277,13.58 50,0 0,44.442 13.889,44.444 50,12.5 86.111,44.444   100,44.442 "></polygon><circle cx="64.043" cy="38.992" r="5.659"></circle><path d="M77.511,68.33c0.165-0.314,0.267-0.666,0.267-1.045V52.572c0-3.12-2.533-5.659-5.657-5.659H56.275  c-3.123,0-5.657,2.539-5.657,5.659v14.713c0,1.248,1.013,2.263,2.263,2.263s2.263-1.015,2.263-2.263V54.835h2.264v37.346h0.057  c0.263,1.292,1.404,2.264,2.772,2.264c1.367,0,2.51-0.972,2.771-2.264h0.057V69.547h2.266v22.634h0.057  c0.262,1.292,1.403,2.264,2.771,2.264c1.369,0,2.511-0.972,2.772-2.264h0.058V54.836h2.264v12.448c0,0.544,0.2,1.038,0.521,1.429  c-1.238,0.765-2.072,2.124-2.072,3.683c0,0.768,0.621,1.389,1.389,1.389c0.769,0,1.39-0.621,1.39-1.389  c0-0.861,0.701-1.562,1.562-1.562s1.562,0.701,1.562,1.562v20.659c0,0.768,0.621,1.39,1.389,1.39s1.389-0.622,1.389-1.39V72.396  C80.382,70.521,79.179,68.934,77.511,68.33z"></path><path d="M41.667,66.606v6.568c1.829,1.653,2.984,4.036,2.984,6.687c0,4.978-4.05,9.028-9.027,9.028  c-3.188,0-5.988-1.666-7.596-4.167H21.89c2.008,5.654,7.398,9.723,13.733,9.723c8.039,0,14.583-6.542,14.583-14.584  C50.206,73.977,46.696,68.909,41.667,66.606z"></path><circle cx="33.437" cy="50.103" r="5.658"></circle><path d="M33.333,81.945c3.068,0,5.555-2.488,5.555-5.556v-4.935v-5.794v-1.771c0-3.068-2.487-5.556-5.555-5.556  c-1.82,0-3.419,0.887-4.433,2.239l-3.439,5.399h-5.438c-1.534,0-2.778,1.245-2.778,2.777c0,1.536,1.244,2.778,2.778,2.778h6.944  c0.28,0,0.55-0.055,0.811-0.135v2.218h-5.312h-4.514v0.017c-0.979,0.036-1.911,0.58-2.382,1.519l-6.944,13.89  c-0.685,1.372-0.129,3.041,1.242,3.727c0.399,0.201,0.823,0.293,1.241,0.293c1.019,0,2-0.562,2.486-1.535l4.788-9.575h2.821h5.642  H33.333z"></path></svg>