<?xml version="1.0"?>
<svg aria-hidden="true" id="Layer_1" version="1.1" viewBox="0 0 64 64"
  fill="black"
  xmlns="http://www.w3.org/2000/svg" xmlns:xlink="http://www.w3.org/1999/xlink">
  <g>
    <path
      d="M25.387,16.908c-0.126,0.197-0.224,0.406-0.299,0.654c0.106-0.18,0.197-0.337,0.289-0.493   c0.008,0.004,0.015,0.008,0.023,0.012c-0.009,0.042-0.018,0.085-0.028,0.127c-0.002,0.008-0.004,0.016-0.006,0.024   c-0.26,1.143-0.325,2.321-0.212,3.487l0.239,2.46c0.023,0.242,0.038,0.484,0.054,0.726c0.08,1.197,0.587,2.328,1.536,3.435   c0.027,0.031,0.052,0.076,0.064,0.114c0.334,1.05,0.823,1.898,1.498,2.591c1.014,1.042,2.219,1.594,3.485,1.594h0.002   c1.26,0,2.46-0.547,3.469-1.582c0.647-0.663,1.126-1.473,1.465-2.477c0.037-0.111,0.109-0.235,0.194-0.339   c0.983-1.193,1.464-2.408,1.462-3.698c0-0.089,0-0.179,0.001-0.268l0.019-4.467c-0.022-0.148-0.044-0.298-0.066-0.451   c0.024,0.061,0.046,0.119,0.069,0.176c0.041,0.103,0.079,0.202,0.115,0.301c0.055,0.152,0.101,0.306,0.152,0.46   c0.004-0.029-0.001-0.056-0.006-0.082c-0.1-0.483-0.219-0.961-0.432-1.41c-0.017-0.035-0.033-0.071-0.048-0.106l-0.001-0.001   c-0.029-0.066-0.056-0.132-0.08-0.198c-0.071-0.191-0.141-0.383-0.211-0.575c-0.053-0.146-0.106-0.292-0.159-0.437   c-0.01-0.026-0.02-0.052-0.029-0.079c0.01-0.006,0.021-0.012,0.032-0.018c0.18,0.284,0.36,0.568,0.54,0.852   c-0.028-0.095-0.062-0.19-0.1-0.283c-0.163-0.396-0.374-0.76-0.691-1.056c-0.067-0.062-0.127-0.13-0.177-0.205   c-0.32-0.477-0.705-0.881-1.232-1.127c-0.015-0.008-0.031-0.015-0.046-0.021c-0.242-0.107-0.486-0.209-0.729-0.313   c-0.061-0.026-0.122-0.052-0.182-0.079c0.123,0.01,0.245,0.024,0.366,0.042c0.689,0.103,1.338,0.334,1.969,0.632   c-0.025-0.025-0.052-0.044-0.079-0.063c-0.757-0.512-1.604-0.768-2.502-0.874c-0.035-0.004-0.069-0.008-0.104-0.011   c-0.302-0.029-0.606-0.039-0.894-0.155c-0.112-0.045-0.234-0.069-0.352-0.1c-0.137-0.035-0.273-0.069-0.41-0.103   c-0.033-0.008-0.066-0.016-0.099-0.024c0.002-0.017,0.001-0.012,0.003-0.029h1.555c-0.012-0.03-0.026-0.04-0.041-0.042   c-0.676-0.098-1.354-0.17-2.039-0.109c-0.234,0.021-0.466,0.031-0.699-0.001c-0.103-0.014-0.207-0.018-0.311-0.027   c-0.001-0.017-0.001-0.012-0.001-0.03c0.508-0.095,1.015-0.189,1.552-0.289c-0.539,0.013-1.046,0.049-1.548,0.138   c-0.28,0.05-0.554,0.139-0.836,0.176c-0.402,0.052-0.809,0.073-1.216,0.107c0.804-0.383,1.665-0.549,2.542-0.647   c-0.165,0.004-0.33-0.003-0.494,0.006c-0.607,0.031-1.21,0.103-1.799,0.264c-0.488,0.133-0.951,0.32-1.349,0.643   c-0.076,0.061-0.167,0.104-0.251,0.154c-0.008-0.013-0.017-0.025-0.025-0.039c0.183-0.132,0.359-0.276,0.551-0.395   c0.195-0.122,0.401-0.229,0.609-0.327c0.201-0.095,0.411-0.17,0.617-0.254c-0.408,0.104-0.802,0.248-1.181,0.433   c-0.751,0.369-1.316,0.984-1.966,1.487c-0.001,0.001-0.003,0.003-0.004,0.004c-0.042,0.068-0.088,0.134-0.125,0.205   c-0.055,0.105-0.096,0.217-0.159,0.316c-0.028,0.045-0.089,0.077-0.142,0.099c-0.106,0.044-0.221,0.069-0.325,0.116   c-0.56,0.251-0.889,0.689-1.029,1.279c0.134-0.268,0.304-0.508,0.552-0.726c-0.067,0.231-0.123,0.436-0.188,0.638   C25.479,16.744,25.437,16.829,25.387,16.908z M26.743,23.227l0.006-0.073c0.005-0.063,0.012-0.15,0.021-0.206   c0.313-0.104,0.498-0.404,0.508-0.827c0.007-0.301,0.009-0.605,0.012-0.899c0.003-0.328,0.006-0.663,0.015-0.996   c0-0.559,0.454-1.009,1.009-1.009c0.01,0,0.02,0,0.03,0.001l0.507,0.015c0.417-0.034,0.838-0.03,1.258-0.035   c0.375-0.005,0.751-0.001,1.127-0.001h1.107c0.403,0,0.806,0.001,1.209-0.001c0.298-0.001,0.595-0.006,0.893-0.007   c0.257-0.002,0.515-0.001,0.772-0.001c0.25-0.001,0.498-0.005,0.744,0.07c0.284,0.087,0.497,0.254,0.619,0.517   c0.079,0.168,0.115,0.357,0.169,0.53c0.003-0.003,0.006-0.007,0.009-0.01c0.008,0.286,0.008,0.578,0.007,0.878   c-0.001,0.261-0.001,0.531,0.004,0.8c0.002,0.072,0.001,0.144,0.001,0.222v0.151c0,0.301,0.216,0.56,0.512,0.613   c0.012,0.056,0.02,0.133,0.023,0.165c0.122,1.153-0.241,2.201-1.145,3.298c-0.186,0.227-0.332,0.485-0.421,0.746   c-0.276,0.816-0.658,1.467-1.166,1.988c-0.76,0.779-1.639,1.192-2.543,1.192h-0.002c-0.908-0.001-1.793-0.417-2.558-1.203   c-0.531-0.546-0.921-1.226-1.192-2.08c-0.064-0.202-0.176-0.403-0.315-0.565C27.035,25.414,26.647,24.374,26.743,23.227z" />
    <path
      d="M36.424,40.657c-0.332,1.333,0.479,2.682,1.811,3.014c1.332,0.332,2.682-0.479,3.014-1.811   c0.332-1.332-0.478-2.682-1.811-3.014C38.105,38.514,36.756,39.324,36.424,40.657L36.424,40.657z M39.979,41.543   c-0.157,0.631-0.797,1.015-1.428,0.858s-1.015-0.797-0.858-1.428c0.157-0.631,0.797-1.015,1.428-0.857   C39.752,40.273,40.137,40.912,39.979,41.543L39.979,41.543z" />
    <path
      d="M46.244,48.733l-0.734-7.67c-0.399-3.295-2.067-5.359-4.834-6.401l-0.017-0.004c0.107,0.468,0.15,0.952,0.162,1.368   c0.023,0.85-0.077,1.808-0.261,2.537c1.146,0.734,1.715,2.143,1.384,3.47c-0.427,1.714-2.169,2.76-3.882,2.333   c-1.713-0.427-2.759-2.168-2.332-3.882c0.415-1.665,2.072-2.7,3.739-2.364c0.249-1,0.341-1.974,0.251-2.698   c-0.051-0.419-0.16-0.763-0.324-1.02c-0.017-0.027-0.034-0.053-0.051-0.079l-0.107-0.027c-0.027-0.028-0.052-0.054-0.078-0.08   c-0.066-0.015-0.132-0.03-0.2-0.044c-0.862-0.178-2.021-1.475-2.515-2.532l-0.19,0.142l-1.783,3.946l-1.149,2.544l-0.102,0.001   l-0.011-0.077l-0.332-2.391v-0.001l-0.034-0.239l0.619-0.619l0.001-0.001l0.107-0.106c0.311-0.312,0.365-0.806,0.113-1.167   c-0.253-0.361-0.673-0.597-1.148-0.597h-1.077c-0.474,0-0.893,0.236-1.147,0.597c-0.253,0.361-0.199,0.855,0.113,1.167l0.164,0.164   l0.563,0.563l-0.02,0.151l-0.338,2.436l-0.021,0.149l-0.047,0.001l-3.172-6.662c-0.494,1.056-1.653,2.354-2.515,2.532   c-0.176,0.036-0.347,0.076-0.516,0.119l-0.337,0.102c0.153,0.694,0.378,1.721,0.404,1.796c0.042,0.119,0.088,0.252,0.135,0.401   c0.089,0.279,0.208,0.656,0.321,1.095c0.566-0.083,1.256-0.029,1.708,0.052c1.012,0.236,1.763,0.793,1.993,1.223   c0.012,0.006,0.024,0.012,0.035,0.019c0.042,0.022,0.086,0.044,0.129,0.069c0.944,0.532,1.642,1.393,2.02,2.492l0,0   c0.064,0.186,0.062,0.389-0.005,0.571c-0.018,0.049-0.04,0.096-0.067,0.141c0.03,0.111,0.056,0.221,0.078,0.328   c0.23,1.099,0.168,2.201-0.173,3.103c-0.188,0.494-0.454,0.907-0.792,1.23c0.085,0.446-0.189,0.879-0.617,0.968   c-0.432,0.09-1.173-0.122-1.271-0.59c-0.098-0.468,0.495-0.96,0.927-1.05c0.117-0.025,0.238-0.021,0.354,0.009   c0.831-0.785,0.96-2.305,0.712-3.49c-0.01-0.048-0.021-0.096-0.033-0.144c-0.276-0.057-0.512-0.263-0.609-0.544   c-0.551-1.604-2.045-2.267-4.099-1.822l-0.008,0.002l-0.009,0.001c-1.896,0.472-2.866,1.625-2.734,3.246   c0.025,0.296-0.109,0.58-0.339,0.743c0.009,0.048,0.018,0.096,0.028,0.145c0.248,1.185,0.975,2.526,2.051,2.911   c0.094-0.075,0.203-0.126,0.321-0.151c0.432-0.09,1.173,0.122,1.271,0.591c0.098,0.468-0.495,0.96-0.927,1.05   c-0.428,0.09-0.853-0.196-0.954-0.64c-0.44-0.16-0.849-0.432-1.219-0.808c-0.675-0.69-1.174-1.675-1.404-2.774   c-0.023-0.108-0.042-0.217-0.06-0.332c-0.202-0.142-0.331-0.37-0.352-0.623c-0.092-1.124,0.182-2.164,0.793-3.015   c-0.11-0.62,0.723-1.93,2.131-2.573c-0.106-0.419-0.221-0.783-0.315-1.081l-0.004-0.013c-0.058-0.183-0.113-0.356-0.159-0.52   c-0.069-0.247-0.219-0.948-0.34-1.665c-2.638,1.067-4.23,3.108-4.619,6.317l-0.742,7.803c-0.024,0.464,0.031,0.543,0.459,0.708   c0.202,0.078,0.406,0.154,0.613,0.221c1.88,0.618,3.824,0.945,5.785,1.107c2.052,0.172,4.11,0.274,5.476,0.347h0.01l3.442-0.009   l0.384-0.001c2.784-0.074,5.068-0.231,7.341-0.565c1.508-0.221,3.001-0.522,4.434-1.062C46.242,49.408,46.287,49.328,46.244,48.733   z" />
    <path
      d="M12.334,25.131l-2.319,0.963c-0.159,0.066-0.263,0.221-0.263,0.393v3.029c0,0.108,0.041,0.211,0.114,0.29   c0.502,0.546,2.613,2.493,5.242,0.001c0.086-0.081,0.135-0.194,0.135-0.312v-3.007c0-0.172-0.104-0.327-0.263-0.393l-2.319-0.963   C12.556,25.087,12.438,25.087,12.334,25.131z" />
    <path
      d="M17.852,21.221v-1.323c0-2.254-1.827-3.471-4.081-3.471h-2.723c-2.254,0-4.081,1.217-4.081,3.471v1.323   C6.968,21.221,12.061,22.231,17.852,21.221z" />
    <g>
      <path
        d="M8.88,29.516v-2.088c-0.473-0.699-0.666-1.388-0.603-2.134l0.005-0.059c0.004-0.05,0.009-0.12,0.017-0.165    c0.251-0.084,0.4-0.324,0.408-0.664c0.006-0.242,0.008-0.486,0.01-0.722c0.002-0.263,0.005-0.532,0.012-0.8    c0-0.196,0.07-0.376,0.186-0.516c-0.966-0.097-1.649-0.209-1.951-0.262c-0.013,0.391-0.002,0.783,0.036,1.174l0.192,1.975    c0.019,0.194,0.031,0.389,0.044,0.583c0.064,0.961,0.471,1.868,1.233,2.758c0.022,0.025,0.042,0.061,0.051,0.092    c0.102,0.322,0.223,0.62,0.363,0.896C8.882,29.561,8.88,29.539,8.88,29.516z" />
      <path
        d="M16.174,22.522c0.063,0.135,0.092,0.286,0.136,0.426c0.002-0.003,0.005-0.006,0.007-0.008    c0.006,0.23,0.006,0.464,0.006,0.705c0,0.21-0.001,0.427,0.004,0.643c0.001,0.058,0.001,0.116,0,0.178v0.121    c0,0.242,0.173,0.449,0.411,0.492c0.009,0.045,0.016,0.107,0.019,0.132c0.085,0.796-0.121,1.531-0.642,2.281v2.003    c0,0.065-0.007,0.129-0.016,0.193c0.147-0.276,0.276-0.574,0.385-0.898c0.03-0.089,0.087-0.189,0.156-0.272    c0.789-0.958,1.175-1.933,1.174-2.969c0-0.072,0-0.144,0.001-0.216l0.014-3.224c-0.598,0.101-1.187,0.181-1.763,0.243    C16.107,22.402,16.144,22.458,16.174,22.522z" />
    </g>
    <g>
      <path
        d="M51.943,16.241h0.28c0.232,0,0.42,0.187,0.42,0.419v0.665h0.665c0.231,0,0.419,0.188,0.419,0.419v0.28    c0,0.232-0.188,0.42-0.419,0.42h-0.665v0.664c0,0.232-0.188,0.42-0.42,0.42h-0.28c-0.231,0-0.419-0.188-0.419-0.42v-0.664h-0.665    c-0.231,0-0.42-0.188-0.42-0.42v-0.28c0-0.202,0.144-0.371,0.335-0.41c0.027-0.006,0.055-0.009,0.084-0.009h0.665V16.66    c0-0.129,0.058-0.244,0.15-0.321C51.747,16.278,51.84,16.241,51.943,16.241z" />
      <path
        d="M59.19,32.857c-0.718-0.261-1.308-0.685-1.697-1.354c-0.18-0.308-0.303-0.628-0.384-0.959h0.35    c0.325,0.017,0.467-0.122,0.583-0.4c0.587-1.408,0.738-2.868,0.551-4.37c-0.221-1.777-0.776-3.415-1.88-4.804    c-0.031-0.047-0.064-0.093-0.097-0.139c-0.067-0.092-0.137-0.18-0.21-0.265c-0.199-0.235-0.416-0.443-0.649-0.628    c-0.025-0.024-0.051-0.047-0.076-0.071c0.046-0.102,0.087-0.209,0.12-0.32c0.015-0.05,0.031-0.105,0.049-0.163l0.003-0.011    c0.005-0.018,0.011-0.037,0.016-0.056l0.003-0.011c0.227-0.767,0.612-2.068,0.646-2.181c0.205-0.619,0.106-1.318-0.258-1.826    c-0.33-0.459-0.829-0.712-1.404-0.712h-5.542c-0.575,0-1.074,0.253-1.403,0.711c-0.365,0.508-0.464,1.207-0.259,1.826l0.719,2.425    c0.013,0.042,0.027,0.085,0.042,0.127c0.026,0.072,0.055,0.142,0.087,0.21c-0.01,0.009-0.021,0.018-0.031,0.026    c-0.26,0.195-0.495,0.414-0.7,0.659c-0.08,0.095-0.155,0.194-0.226,0.297c-1.168,1.42-1.745,3.106-1.967,4.938    c-0.184,1.518-0.034,2.996,0.598,4.402c0.06,0.133,0.231,0.312,0.349,0.311h0.579c-0.303,1.102-0.968,1.916-2.11,2.347    c-0.032,0.012-0.063,0.03-0.145,0.07c0.809,0.252,1.599,0.44,2.363,0.452l0.368-0.094c0.668-0.142,1.314-0.445,1.933-0.971    c0.488,0.276,0.943,0.552,1.415,0.796c0.003,0.002,0.006,0.003,0.009,0.005c0.346,0.177,0.732,0.261,1.12,0.261h0.056    c0.379,0,0.757-0.079,1.096-0.248c0.002-0.002,0.005-0.002,0.007-0.004c0.427-0.215,0.841-0.456,1.267-0.689    c0.664,0.549,1.473,0.82,2.305,0.911l0.209,0.027c0.861-0.027,1.697-0.231,2.332-0.472C59.27,32.89,59.23,32.872,59.19,32.857z     M48.705,15.873c0.145-0.201,0.349-0.303,0.607-0.303h5.542c0.258,0,0.463,0.102,0.607,0.303c0.183,0.255,0.231,0.628,0.123,0.95    l-0.006,0.017c0,0-0.411,1.387-0.648,2.189c-0.007,0.024-0.015,0.047-0.021,0.069c-0.019,0.06-0.036,0.118-0.051,0.171    c-0.006,0.02-0.012,0.04-0.019,0.06c-0.024,0.069-0.051,0.133-0.083,0.194c-0.221,0.427-0.634,0.66-1.198,0.674    c-0.016,0.001-0.031,0-0.047,0h-2.855c-0.162,0-0.315-0.018-0.453-0.053c-0.53-0.137-0.763-0.507-0.867-0.794    c-0.001-0.002-0.001-0.002-0.002-0.004c-0.009-0.026-0.018-0.053-0.026-0.078l-0.721-2.43l-0.005-0.016    C48.473,16.501,48.521,16.127,48.705,15.873z M56.799,26.172c0.003,0.132-0.065,0.544-0.149,1.002    c-0.363,1.968-1.455,3.74-3.085,4.901c-0.052,0.038-0.106,0.075-0.16,0.112c-0.915,0.623-1.692,0.488-2.658-0.021    c-3.904-2.056-2.763-7.883-2.763-7.883c0.048-0.431,0.128-0.838,0.23-1.219c0.072-0.265,0.311-0.455,0.585-0.445    c0.002,0.001,0.003,0.001,0.006,0.001c0.946,0.041,1.889-0.021,2.817-0.232c0.309-0.07,0.606-0.158,0.89-0.264    c0.194,0.146,0.396,0.288,0.603,0.424c0.538,0.356,1.086,0.71,1.563,1.138c0.481,0.431,0.879,0.953,1.316,1.437    c0.163-0.932-0.628-1.433-1.039-2.113c0.579,0.365,1.057,0.794,1.381,1.322l0.123,0.22c0.19,0.374,0.306,0.796,0.333,1.279    C56.799,25.945,56.802,26.059,56.799,26.172z" />
    </g>
    <path
      d="M52.083,39.437c-0.619,0-1.212-0.058-1.771-0.16l1.356,8.225h0.83l1.355-8.222C53.295,39.382,52.7,39.437,52.083,39.437z" />
    <path
      d="M58.351,34.841h-0.139c-1.637,0-2.435-0.447-2.827-1.083l-2.266,13.744h8.574c0.692,0,1.254-0.561,1.254-1.254v-6.811   C62.947,36.899,60.889,34.841,58.351,34.841z M58.993,41.35h-2.738v-0.72h2.738V41.35z" />
    <path
      d="M16.893,40.912c0.34-2.813,1.483-4.948,3.398-6.402c-0.645-0.344-1.376-0.607-2.207-0.778   c-0.692-0.143-1.623-1.184-2.019-2.032l-0.153,0.114L12.41,37.32l-3.364-5.51l-0.117-0.111c-0.397,0.848-1.327,1.889-2.019,2.032   c-3.047,0.628-4.876,2.377-5.258,5.531l-0.595,6.263c-0.019,0.372,0.025,0.436,0.369,0.568c0.162,0.063,0.326,0.124,0.492,0.178   c1.509,0.496,3.069,0.758,4.644,0.889c1.978,0.166,3.964,0.25,4.985,0.312c1.799-0.015,3.33-0.052,4.735-0.134L16.893,40.912z" />
    <path
      d="M47.102,40.871l0.635,6.632h3.31l-2.266-13.744c-0.391,0.636-1.189,1.083-2.827,1.083h-0.139   c-0.503,0-0.985,0.083-1.438,0.233C45.889,36.493,46.807,38.428,47.102,40.871z" />
  </g>
</svg>
